<svg width="549" height="153" viewBox="0 0 549 153" fill="none" xmlns="http://www.w3.org/2000/svg">
<g clip-path="url(#clip0_2_2520)" filter="url(#filter0_d_2_2520)">
<path d="M231.568 57.2823C221.699 55.5393 211.908 53.8042 201.929 52.0376C201.929 55.4526 201.881 58.6468 201.944 61.8331C202.007 64.8853 202.236 67.9375 202.299 70.9897C202.607 86.2666 202.923 101.551 203.167 116.828C203.254 122.239 199.57 126.442 194.568 126.868C189.385 127.302 184.92 123.579 184.115 118.129C184.028 117.554 184.005 116.97 183.989 116.387C183.823 107.435 183.697 98.4833 183.508 89.5317C183.231 76.1477 182.924 62.7637 182.624 49.3718C182.624 49.0879 182.553 48.804 182.506 48.386C175.145 46.8717 167.801 45.3811 160.456 43.8352C157.276 43.1649 154.089 42.4945 150.949 41.6506C145.514 40.1994 142.477 35.136 143.81 29.978C145.088 25.033 150.358 21.9334 155.565 23.0297C163.564 24.7096 171.564 26.3737 179.571 28.03C180.257 28.1719 180.967 28.1798 181.772 28.2587C181.772 25.0803 181.772 22.0281 181.772 18.9837C181.788 13.1317 185.93 8.65194 191.334 8.64405C196.714 8.63617 200.911 13.1475 201.006 18.9364C201.069 22.8641 201.219 26.7917 201.479 30.7115C201.518 31.3109 202.307 32.2573 202.875 32.3677C212.973 34.2212 223.095 35.9641 233.209 37.7308C234.566 37.9674 235.923 38.1804 237.563 38.4485C238.613 34.9704 239.599 31.4371 240.751 27.959C241.334 26.1844 241.958 24.3231 243.015 22.8246C245.736 18.968 250.62 17.7692 254.659 19.6778C258.935 21.6968 261.049 26.5078 259.763 31.4844C258.911 34.789 257.925 38.0542 256.9 41.6585C260.497 42.25 264.039 42.8178 267.573 43.4172C272.583 44.2611 277.624 44.9394 282.578 46.0436C287.888 47.2266 290.862 51.7773 290.105 56.8801C289.402 61.628 284.866 65.3033 279.659 64.8064C274.248 64.2859 268.875 63.3 263.495 62.4798C259.487 61.8725 255.495 61.2021 251.211 60.5081C249.902 64.7828 248.584 69.0495 247.299 73.3163C243.969 84.3501 240.68 95.3996 237.287 106.418C236.743 108.2 236.009 110.006 234.968 111.536C232.088 115.779 226.897 117.088 222.661 114.872C218.361 112.624 216.744 107.687 218.275 102.655C222.779 87.8124 227.142 72.9299 231.552 58.0631C231.591 57.9291 231.552 57.7713 231.552 57.2666L231.568 57.2823Z" fill="#FF6D00"/>
<path d="M80.5162 72.2039C86.8038 76.7468 91.6555 82.5751 93.896 90.1781C98.3533 105.305 93.8645 118.247 83.0565 128.942C73.7079 138.185 61.9769 143.004 48.9047 144.377C45.2994 144.755 41.6389 145.15 38.0415 144.944C32.7716 144.645 29.1742 140.686 29.0874 135.764C29.0007 130.701 32.4561 126.71 37.7575 125.961C42.3647 125.314 47.0824 125.235 51.587 124.202C60.0678 122.254 67.6413 118.445 72.7691 111.039C76.3508 105.865 77.3606 100.1 74.4811 94.3424C71.5779 88.5376 66.5526 85.4302 60.0362 84.9254C56.8411 84.6731 53.5672 84.6257 51.0269 82.3149C45.4336 77.2279 46.7747 69.1044 53.583 65.7446C57.275 63.9227 61.0854 62.1482 64.3673 59.7111C70.2841 55.3103 74.1655 49.5055 74.7098 41.8237C75.128 35.9401 72.7455 31.4131 68.5012 27.6037C62.8447 22.5325 56.0759 20.4582 48.6444 19.7957C38.3176 18.873 29.2925 22.6823 20.3227 26.9964C18.1611 28.0375 15.7076 28.8262 13.333 29.0076C9.25434 29.323 6.3985 26.9806 4.85225 23.3764C3.25866 19.6616 3.91345 16.0731 6.75351 13.1077C7.8422 11.9719 9.15178 10.9545 10.5324 10.1974C22.4212 3.6513 34.8622 -0.828435 48.747 0.125876C62.2215 1.05653 74.2207 5.48894 83.8533 15.1898C94.9058 26.3103 97.5092 41.9893 90.9219 56.2488C89.5886 59.1275 88.208 62.0141 86.4803 64.6562C84.7447 67.3062 82.5516 69.6644 80.5083 72.2039H80.5162Z" fill="#FF6D00"/>
<path d="M477.967 26.8706C477.154 22.2331 476.31 17.7534 475.608 13.25C474.495 6.12024 479.489 0.749287 486.432 1.49854C490.155 1.90077 493.39 4.66117 494.376 8.88853C495.693 14.5434 496.806 20.2614 497.705 25.9951C498.068 28.2981 499.062 28.9448 501.184 29.0395C508.742 29.3786 516.3 29.6862 523.842 30.3171C529.182 30.7588 532.709 34.6707 532.788 39.5763C532.867 44.7659 529.656 48.6226 524.173 49.3008C521.025 49.6873 517.791 49.4507 514.596 49.3639C510.47 49.2535 506.352 49.0248 501.965 48.8276C502.667 52.8105 503.298 56.5883 504.001 60.3582C506.825 75.43 509.681 90.486 512.513 105.558C513.893 112.893 509.286 118.721 502.415 118.216C498.423 117.924 495.433 115.771 494.289 111.97C492.956 107.537 492.08 102.947 491.22 98.3887C488.096 81.8262 485.059 65.2481 482.006 48.6778C481.793 47.5263 481.383 47.0057 480.073 46.8953C474.275 46.4379 468.484 45.9016 462.701 45.247C457.455 44.6476 453.81 40.9644 453.566 36.2954C453.266 30.4276 457.479 25.9399 463.498 26.0346C467.561 26.0977 471.624 26.5867 475.687 26.8627C476.397 26.91 477.115 26.8627 477.982 26.8627L477.967 26.8706Z" fill="#FF6D00"/>
<path d="M168.597 86.8817C168.495 98.8618 167.067 110.463 159.762 120.495C154.389 127.87 147.289 132.767 138.09 133.816C122.746 135.567 110.187 127.097 105.737 112.159C103.939 106.11 103.71 99.9187 104.294 93.6013C105.169 84.137 107.307 74.9567 110.147 65.9499C111.41 61.9513 113.106 58.0236 115.109 54.3405C118.636 47.8575 126.699 47.0136 131.108 52.4949C133.554 55.5314 134.02 59.0726 132.355 62.5507C128.41 70.7767 126.47 79.5548 124.726 88.4038C123.661 93.8221 122.738 99.2719 124.095 104.785C125.247 109.478 127.322 113.437 132.647 114.391C136.047 115.006 138.927 113.705 141.443 111.552C145.553 108.042 147.131 103.192 148.062 98.1283C149.916 88.041 149.056 78.0168 146.973 68.0478C146.437 65.4925 145.979 62.9687 147.092 60.3424C148.709 56.5094 151.51 54.3799 155.557 54.1906C159.746 53.9934 163.059 55.9888 164.55 59.8534C165.891 63.3394 166.743 67.0935 167.248 70.8082C167.966 76.124 168.171 81.5107 168.589 86.8659L168.597 86.8817Z" fill="#FF6D00"/>
<path d="M459.388 97.3396C457.66 98.8223 456.09 100.321 454.363 101.622C448.493 106.023 441.953 108.839 434.53 108.334C425.497 107.719 418.988 103.002 414.72 95.0209C407.628 81.7552 411.265 63.7652 420.432 54.2694C429.836 44.5292 441.811 44.0323 452.911 51.793C457.439 54.9556 460.887 59.2303 463.964 63.781C470.141 72.9219 474.866 82.8199 478.827 93.0807C480.373 97.0951 480.113 101.007 476.87 104.193C472.31 108.681 465.352 107.742 461.905 102.222C460.958 100.707 460.264 99.0353 459.404 97.3396H459.388ZM434.23 89.0111C440.486 90.3834 448.138 84.6496 448.517 76.8811C448.84 70.2246 439.523 57.6135 431.098 68.1424C422.743 78.5767 430.53 88.2066 434.23 89.0111Z" fill="#FF6D00"/>
<path d="M316.525 45.239C320.004 40.7908 323.767 37.3363 329.116 35.8852C336.185 33.9687 342.472 35.3331 348.065 39.939C354.116 44.9235 357.517 51.375 358.361 59.1672C358.558 60.9575 358.929 62.7951 358.739 64.5539C358.211 69.4674 353.982 73.1664 349.288 73.1112C344.247 73.0481 340.326 69.4201 339.616 64.0018C339.23 61.0837 338.646 58.3075 336.555 56.0598C330.37 49.4111 321.495 60.8313 328.54 79.3733C331.293 87.3864 334.118 95.3837 336.863 103.405C338.062 106.914 338.173 110.408 335.845 113.563C333.629 116.568 330.591 117.869 326.891 117.372C323.002 116.844 320.288 114.557 319.018 110.968C311.515 89.7446 304.068 68.4973 296.739 47.2107C294.893 41.8555 296.321 37.4468 300.068 34.9861C305.433 31.4606 312.281 33.8425 314.695 40.0889C315.318 41.7057 315.87 43.354 316.541 45.239H316.525Z" fill="#FF6D00"/>
<path d="M270.981 114.099C273.19 117.073 276.038 117.601 279.233 117.12C283.572 116.473 287.367 114.612 290.751 111.852C292.448 110.471 294.081 109.012 295.832 107.719C300.045 104.604 305.496 105.069 308.873 108.744C312.21 112.372 312.367 117.814 308.802 121.639C300.597 130.465 290.507 135.899 278.413 136.798C267.897 137.579 255.164 131.719 250.636 116.308C246.754 103.097 252.671 85.9669 264.363 78.6873C270.114 75.1067 276.338 73.5845 283.004 76.3055C291.398 79.7284 295.012 89.8078 292.4 98.0022C289.789 106.189 283.77 110.598 275.849 112.877C274.334 113.311 272.788 113.642 270.981 114.091V114.099Z" fill="#FF6D00"/>
<path d="M386.091 70.8004C381.263 74.0892 378.415 79.1999 376.766 85.0835C375.953 87.9622 375.472 90.8725 376.308 93.8931C377.429 97.9154 380.127 99.6505 384.166 98.57C386.619 97.9154 388.994 96.969 391.416 96.2119C396.749 94.5477 401.75 96.7009 403.746 101.472C405.719 106.197 403.644 111.363 398.619 113.871C391.432 117.459 383.898 119.573 375.859 117.719C364.822 115.172 356.925 104.667 356.554 93.3332C356.16 81.0849 359.938 70.4534 367.764 61.1784C371.141 57.1719 375.188 53.9777 380.095 52.0375C387.866 48.9617 395.999 49.9712 400.567 56.0283C402.697 58.8597 404.362 61.9434 404.425 65.5793C404.496 69.3965 402.784 72.3541 399.415 74.1365C395.865 76.0215 392.402 75.5798 389.175 73.2138C388.237 72.5276 387.337 71.7862 386.075 70.8004H386.091Z" fill="#FF6D00"/>
<path d="M33.2605 104.327C33.1027 109.643 28.6928 113.902 23.5254 113.736C17.9952 113.563 13.4905 109.138 13.5536 103.941C13.6247 98.499 18.2161 94.0587 23.5096 94.319C29.0162 94.5871 33.4183 99.1063 33.2605 104.32V104.327Z" fill="#FF6D00"/>
<path d="M535.541 114.517C530.137 114.502 525.727 110.053 525.782 104.675C525.83 99.6427 530.216 95.2497 535.257 95.1945C540.629 95.1314 545 99.556 545 105.045C545 110.471 540.945 114.533 535.541 114.517Z" fill="#FF6D00"/>
<path d="M16.2912 68.8208C11.0449 68.7814 6.56394 64.3884 6.58761 59.3172C6.61917 53.8752 10.9345 49.4744 16.1886 49.5296C21.419 49.5848 25.8448 54.1355 25.7817 59.3881C25.7186 64.5383 21.3717 68.8524 16.2912 68.8208Z" fill="#FF6D00"/>
</g>
<defs>
<filter id="filter0_d_2_2520" x="0" y="0" width="549" height="153" filterUnits="userSpaceOnUse" color-interpolation-filters="sRGB">
<feFlood flood-opacity="0" result="BackgroundImageFix"/>
<feColorMatrix in="SourceAlpha" type="matrix" values="0 0 0 0 0 0 0 0 0 0 0 0 0 0 0 0 0 0 127 0" result="hardAlpha"/>
<feOffset dy="4"/>
<feGaussianBlur stdDeviation="2"/>
<feComposite in2="hardAlpha" operator="out"/>
<feColorMatrix type="matrix" values="0 0 0 0 0 0 0 0 0 0 0 0 0 0 0 0 0 0 0.25 0"/>
<feBlend mode="normal" in2="BackgroundImageFix" result="effect1_dropShadow_2_2520"/>
<feBlend mode="normal" in="SourceGraphic" in2="effect1_dropShadow_2_2520" result="shape"/>
</filter>
<clipPath id="clip0_2_2520">
<rect width="541" height="145" fill="white" transform="translate(4)"/>
</clipPath>
</defs>
</svg>
